<?xml version="1.0" encoding="utf-8"?>
<!-- Generator: Adobe Illustrator 25.0.0, SVG Export Plug-In . SVG Version: 6.00 Build 0)  -->
<svg version="1.1" id="Layer_1" xmlns="http://www.w3.org/2000/svg" xmlns:xlink="http://www.w3.org/1999/xlink" x="0px" y="0px"
	 viewBox="0 0 4460 1459" style="enable-background:new 0 0 4460 1459;" xml:space="preserve">
<style type="text/css">
	.st0{fill:#00B5AD;}
	.st1{fill:#FFFFFF;}
	.st2{font-family:'ChollaWideOT-Regular';}
	.st3{font-size:1218.6892px;}
</style>
<circle class="st0" cx="762.02" cy="726.01" r="699"/>
<path class="st1" d="M1080.19,230.53c-32.29-4.53-64.18,13.17-78.96,43.99L853.44,970.84c-13.66,35.71-47.3,58.17-82.59,55.82
	l0.02-0.42c-37.09,2.61-72.55-19.91-86.91-55.79L529.41,274.13c-15.46-30.82-48.8-48.52-82.57-43.99
	c-34.99,4.69-63.12,32.27-68.67,67.59c18.28,92.64,73.7,369.51,148.06,678.08c11.08,45.97,33.99,135.81,110.51,196.34
	c18.47,14.61,61.9,50.43,125.53,50.43c60.84,0,118.64-35.43,136.3-50.04c73.17-60.53,95.08-150.37,105.68-196.34
	c71.11-308.57,124.1-585.44,141.59-678.08C1140.55,262.8,1113.65,235.22,1080.19,230.53z"/>
<text transform="matrix(1 0 0 1 1506.1493 1226.2614)" class="st1 st2 st3">iiHost </text>
</svg>
