<?xml version="1.0" encoding="utf-8"?>
<!-- Generator: Adobe Illustrator 25.0.0, SVG Export Plug-In . SVG Version: 6.00 Build 0)  -->
<svg version="1.1" id="Layer_1" xmlns="http://www.w3.org/2000/svg" xmlns:xlink="http://www.w3.org/1999/xlink" x="0px" y="0px"
	 viewBox="0 0 2465.61 1786" style="enable-background:new 0 0 2465.61 1786;" xml:space="preserve">
<style type="text/css">
	.st0{opacity:0.21;fill:#00B5AD;}
</style>
<circle class="st0" cx="2035.11" cy="442.5" r="37.5"/>
<circle class="st0" cx="1902.61" cy="572" r="25"/>
<circle class="st0" cx="1756.11" cy="466.5" r="24.5"/>
<circle class="st0" cx="1676.11" cy="584.5" r="12.5"/>
<circle class="st0" cx="945.61" cy="443" r="18"/>
<circle class="st0" cx="1884.61" cy="1054" r="47"/>
<circle class="st0" cx="1998.61" cy="823" r="37"/>
<circle class="st0" cx="1780.61" cy="819" r="33"/>
<circle class="st0" cx="1115.11" cy="273.5" r="14.5"/>
<circle class="st0" cx="1643.61" cy="344" r="48"/>
<circle class="st0" cx="250.11" cy="236.5" r="37.5"/>
<circle class="st0" cx="379.61" cy="369" r="25"/>
<circle class="st0" cx="274.11" cy="515.5" r="24.5"/>
<circle class="st0" cx="392.11" cy="595.5" r="12.5"/>
<circle class="st0" cx="355.61" cy="823" r="39"/>
<circle class="st0" cx="907.61" cy="199" r="47"/>
<circle class="st0" cx="630.61" cy="273" r="37"/>
<circle class="st0" cx="626.61" cy="491" r="33"/>
<circle class="st0" cx="328.11" cy="1008.5" r="11.5"/>
<circle class="st0" cx="247.11" cy="1156.5" r="14.5"/>
<circle class="st0" cx="100.61" cy="730" r="48"/>
<circle class="st0" cx="1652.11" cy="211.5" r="37.5"/>
<circle class="st0" cx="1842.61" cy="199" r="25"/>
<circle class="st0" cx="1679.11" cy="626.5" r="24.5"/>
<circle class="st0" cx="1797.11" cy="706.5" r="12.5"/>
<circle class="st0" cx="2023.61" cy="1465" r="44"/>
<circle class="st0" cx="2295.61" cy="1419" r="18"/>
<circle class="st0" cx="2128.61" cy="1335" r="22"/>
<circle class="st0" cx="1925.61" cy="941" r="39"/>
<circle class="st0" cx="2260.11" cy="1020.5" r="40.5"/>
<circle class="st0" cx="2266.61" cy="498" r="47"/>
<circle class="st0" cx="2165.61" cy="126" r="37"/>
<circle class="st0" cx="2031.61" cy="602" r="33"/>
<circle class="st0" cx="1733.11" cy="1119.5" r="11.5"/>
<circle class="st0" cx="2165.11" cy="1593.5" r="37.5"/>
<circle class="st0" cx="1131.61" cy="1554" r="25"/>
<circle class="st0" cx="905.11" cy="1566.5" r="12.5"/>
<circle class="st0" cx="670.61" cy="1695" r="39"/>
<circle class="st0" cx="1013.61" cy="1462" r="25"/>
<circle class="st0" cx="908.11" cy="1608.5" r="24.5"/>
<circle class="st0" cx="1026.11" cy="1688.5" r="12.5"/>
<circle class="st0" cx="1865.61" cy="1527" r="37"/>
<circle class="st0" cx="1260.61" cy="1584" r="33"/>
<circle class="st0" cx="1454.61" cy="134" r="37"/>
<circle class="st0" cx="1236.61" cy="130" r="33"/>
<circle class="st0" cx="224.61" cy="1652" r="18"/>
<circle class="st0" cx="144.61" cy="1421" r="44"/>
<circle class="st0" cx="-271.39" cy="1382" r="39"/>
<circle class="st0" cx="-92.89" cy="1574.5" r="11.5"/>
<circle class="st0" cx="55.11" cy="1655.5" r="14.5"/>
<circle class="st0" cx="-133.39" cy="1656" r="110"/>
<circle class="st0" cx="308.61" cy="1708" r="47"/>
<circle class="st0" cx="539.61" cy="1822" r="37"/>
<circle class="st0" cx="543.61" cy="1604" r="33"/>
<circle class="st0" cx="1596.61" cy="1795" r="47"/>
<circle class="st0" cx="1710.61" cy="1564" r="37"/>
<circle class="st0" cx="1492.61" cy="1560" r="33"/>
<circle class="st0" cx="1509.11" cy="1447.5" r="12.5"/>
<circle class="st0" cx="1637.61" cy="1682" r="39"/>
<circle class="st0" cx="1972.11" cy="1761.5" r="40.5"/>
<circle class="st0" cx="1743.61" cy="1343" r="33"/>
<circle class="st0" cx="1412.61" cy="1652" r="48"/>
</svg>
